<svg id="Layer_1" data-name="Layer 1" xmlns="http://www.w3.org/2000/svg" viewBox="0 0 776.3 133.3"><defs><style>.cls-1{fill:#0033a1;}</style></defs><title>rb-logo-sideways</title><g id="Logo"><path class="cls-1" d="M124.1,66.7A57.45,57.45,0,1,1,66.7,9.2,57.4,57.4,0,0,1,124.1,66.7ZM66.7,12.1a54.45,54.45,0,1,0,54.4,54.5A54.46,54.46,0,0,0,66.7,12.1Z"/><rect class="cls-1" x="65.6" width="2.1" height="8.4"/><rect class="cls-1" x="124.9" y="65.7" width="8.3" height="2.1"/><rect class="cls-1" x="65.6" y="125.1" width="2.1" height="8.2"/><rect class="cls-1" y="65.7" width="8.2" height="2.1"/><path class="cls-1" d="M59.4,17.8V54.1h-10l9.6,13H49.4L38,54.2H27.2c-.9,2.8-2.1,10.1-1.8,13h-8A49.28,49.28,0,0,1,59.4,17.8ZM30.9,46H51.5V28.1C43.5,31,34.2,39.2,30.9,46Z"/><path class="cls-1" d="M66.3,46.6h1.5v6.2c-.7-.3-1.8,0-1.8.8a1.44,1.44,0,0,0,1.8,1.2v.9c-.6-.3-1.8.1-1.8.8a1.31,1.31,0,0,0,1.8.9v4.7H66.3V58.4a2,2,0,0,1-1.8-1.8c0-.8.3-1.3.8-1.4a1.4,1.4,0,0,1-.8-1.5,2.15,2.15,0,0,1,1.8-2.1Z"/><path class="cls-1" d="M109.3,42l-1.7,5.1a26.1,26.1,0,0,1,6,4.5c1,2,2.7,11.3,2.2,15.5H73.5V17.8C90.5,19.9,104.1,31.9,109.3,42ZM80.9,51v9.1h26.6c-.5-2.9-2.4-7.5-7-9.2C100.5,51,80.9,51,80.9,51Zm0-23.1V43.7H99.2V41.3C95.6,36.1,86.7,29.4,80.9,27.9Z"/><path class="cls-1" d="M112.6,84.4c-1.9,5.9-8.9,15.9-14.3,20H86.9v-20ZM93.2,90.7V98h4.9c1.7-1.7,4.8-5.7,5.2-7.3Z"/><path class="cls-1" d="M81.7,74.1V85.4H73.5V81.2H27.9a41.63,41.63,0,0,0,53.8,23.9v8.4c-29.3,9.9-59.2-10.1-63.8-39.4Z"/></g><g id="R_B_Company" data-name="R&amp;B Company"><path class="cls-1" d="M231.6,89.1h-5.2V81.4a31.12,31.12,0,0,0-.1-3.2,5.21,5.21,0,0,0-.5-2.3,4,4,0,0,0-1.2-1.6,6,6,0,0,0-2.4-.9,19.5,19.5,0,0,0-3.9-.4c-1.6-.1-3.5-.1-5.8-.1H189.3V89.2h-5.2V47.8h29.2c3.1,0,5.8.1,8,.3a30.83,30.83,0,0,1,5.4,1,8.66,8.66,0,0,1,3.2,1.7,6.27,6.27,0,0,1,1.7,2.3,7.31,7.31,0,0,1,.6,3c.1,1.1.1,2.3.1,3.7a20.34,20.34,0,0,1-.4,4.5,9.86,9.86,0,0,1-1.2,3.3,6.94,6.94,0,0,1-2.3,2.2,9,9,0,0,1-3.6,1.1,9.05,9.05,0,0,1,3.4,1.1,5.78,5.78,0,0,1,2,2.1,7.5,7.5,0,0,1,.9,3.1c.1,1.2.2,2.5.2,4l.3,7.9ZM189.4,68.4h24.1c2.3,0,4.2,0,5.8-.1a31.51,31.51,0,0,0,3.9-.4,6.69,6.69,0,0,0,2.4-.9,2.76,2.76,0,0,0,1.2-1.6,7.79,7.79,0,0,0,.5-2.3c0-.9.1-2,.1-3.2a26.28,26.28,0,0,0-.1-3,4.65,4.65,0,0,0-.5-2.1,4.07,4.07,0,0,0-1.2-1.4,8.34,8.34,0,0,0-2.4-.8,31.51,31.51,0,0,0-3.9-.4c-1.6,0-3.5-.1-5.8-.1H189.4Z"/><path class="cls-1" d="M283.2,68.4h5.2v1.7c0,2.8-.1,5.1-.3,7.2a20.5,20.5,0,0,1-1.1,5.1,7.76,7.76,0,0,1-2.5,3.4,10.27,10.27,0,0,1-4.2,2,32,32,0,0,1-6.3,1c-2.5.2-5.4.3-8.9.3-3.2,0-6,0-8.5-.1s-4.7-.2-6.6-.4a20.67,20.67,0,0,1-4.9-1.2,7.46,7.46,0,0,1-3.3-2.4,8.91,8.91,0,0,1-1.9-3.9,24,24,0,0,1-.6-5.8,15.32,15.32,0,0,1,.6-4.5,11.89,11.89,0,0,1,1.5-3.2,10.72,10.72,0,0,1,2-2.2,8,8,0,0,1,2.1-1.3c.7-.3,1.3-.5,1.9-.7a3.69,3.69,0,0,1,1.3-.2c-.6-.4-1.2-.9-1.8-1.3a5,5,0,0,1-1.4-1.5,6.08,6.08,0,0,1-.9-1.8,8,8,0,0,1-.3-2.3,9.14,9.14,0,0,1,.9-4.3,7.88,7.88,0,0,1,2.3-2.8,12.62,12.62,0,0,1,3.3-1.6,16.71,16.71,0,0,1,4-.7c1.4-.1,2.8-.2,4.3-.2h4.2c2.9,0,5.4,0,7.5.1s4,.3,5.5.5a15.48,15.48,0,0,1,3.8,1.2,5.23,5.23,0,0,1,2.3,2.1,8.09,8.09,0,0,1,1.2,3.3,32.3,32.3,0,0,1,.3,4.8h-5.2a29.17,29.17,0,0,0-.2-3.3,4.81,4.81,0,0,0-.8-2.2,3.44,3.44,0,0,0-1.6-1.3,12.58,12.58,0,0,0-2.8-.7,26.2,26.2,0,0,0-4.2-.2h-5.9c-2.6,0-4.8,0-6.5.1a11.68,11.68,0,0,0-4.2.6,4.41,4.41,0,0,0-2.3,1.5,5.13,5.13,0,0,0-.7,3,6.75,6.75,0,0,0,.2,1.4,4.15,4.15,0,0,0,.7,1.3,15.83,15.83,0,0,0,1.3,1.3,6.83,6.83,0,0,0,2.1,1.2l43.9,22.4L296,88.1,253,66.6a12.3,12.3,0,0,0-3.5.5,6.51,6.51,0,0,0-2.7,1.5,7.52,7.52,0,0,0-1.8,2.7,9.42,9.42,0,0,0-.6,3.9,18.63,18.63,0,0,0,.3,3.6,4.56,4.56,0,0,0,1.2,2.4,7.63,7.63,0,0,0,2.3,1.5,22.47,22.47,0,0,0,3.8.8,44.41,44.41,0,0,0,5.5.3h13.6a32.77,32.77,0,0,0,4.7-.3,22.38,22.38,0,0,0,3.4-.7,4.35,4.35,0,0,0,2.2-1.5,4.56,4.56,0,0,0,1.2-2.4,13.07,13.07,0,0,0,.4-3.7l.2-6.8Z"/><path class="cls-1" d="M300.9,89.1V47.8h34.4a25.34,25.34,0,0,1,6.2.6,7.61,7.61,0,0,1,3.6,1.8,5.64,5.64,0,0,1,1.7,3,17.62,17.62,0,0,1,.4,4.2,12.62,12.62,0,0,1-.3,3,12.34,12.34,0,0,1-.8,2.3,5,5,0,0,1-1.1,1.6,6.89,6.89,0,0,1-1.3,1.1,6.63,6.63,0,0,1-3.4,1.2,10.21,10.21,0,0,1,4.3,1.2,15.26,15.26,0,0,1,1.6,1.1,7.94,7.94,0,0,1,1.4,1.7,13.32,13.32,0,0,1,1,2.4,13.74,13.74,0,0,1,.4,3.1c0,1.4-.1,2.8-.2,3.9a10.74,10.74,0,0,1-.8,3.2,7.25,7.25,0,0,1-1.8,2.5,10.13,10.13,0,0,1-3.1,1.8,25.1,25.1,0,0,1-4.7,1.1,63.84,63.84,0,0,1-6.6.3l-30.9.2ZM330.1,65c1.8,0,3.3,0,4.5-.1a21.26,21.26,0,0,0,3.2-.4,9.27,9.27,0,0,0,2.2-.8,3,3,0,0,0,1.3-1.4,5.87,5.87,0,0,0,.6-2,21.58,21.58,0,0,0,.2-2.8,7.22,7.22,0,0,0-.4-2.8,3.15,3.15,0,0,0-1.3-1.7,5.7,5.7,0,0,0-2.6-.8c-1.1-.1-2.5-.2-4.2-.2H306V65Zm0,19.8c2,0,3.8,0,5.2-.1a32.25,32.25,0,0,0,3.7-.4,7.28,7.28,0,0,0,2.5-.9,5.36,5.36,0,0,0,1.5-1.5,5.2,5.2,0,0,0,.7-2.3,29.17,29.17,0,0,0,.2-3.3,18.36,18.36,0,0,0-.2-2.6,5.36,5.36,0,0,0-.7-1.9,3.64,3.64,0,0,0-1.5-1.2,7.47,7.47,0,0,0-2.5-.7c-1-.1-2.3-.3-3.7-.4s-3.2-.1-5.2-.1H306V84.9l24.1-.1Z"/><path class="cls-1" d="M417.1,60.7a14.21,14.21,0,0,0-.7-5.1,5.34,5.34,0,0,0-2.3-2.8,8.67,8.67,0,0,0-4.2-1.2,59.18,59.18,0,0,0-6.5-.3H391.3c-2.3,0-4.2.1-5.8.2a12.7,12.7,0,0,0-3.9.8,5.46,5.46,0,0,0-2.4,1.8,6.72,6.72,0,0,0-1.2,3.1,29.44,29.44,0,0,0-.4,4.7v6.7c0,2.6,0,4.8.1,6.7a30.55,30.55,0,0,0,.4,4.7,6.72,6.72,0,0,0,1.2,3.1,4.52,4.52,0,0,0,2.4,1.8,12.7,12.7,0,0,0,3.9.8c1.6.1,3.5.2,5.8.2h12.1c2,0,3.7-.1,5.2-.2a16.79,16.79,0,0,0,3.7-.6,7.28,7.28,0,0,0,2.5-1.2,5.75,5.75,0,0,0,1.5-1.9,7.67,7.67,0,0,0,.7-2.7c.1-1.1.2-2.3.2-3.8h5.2a33.78,33.78,0,0,1-.3,4.7,13.36,13.36,0,0,1-1.1,3.7,8.55,8.55,0,0,1-2.2,2.8,10.59,10.59,0,0,1-3.5,1.9,21.81,21.81,0,0,1-5,1.1,63.92,63.92,0,0,1-6.8.4H391.5a45,45,0,0,1-8-.6,16.42,16.42,0,0,1-5.3-1.8,9.08,9.08,0,0,1-3.2-2.9,13.22,13.22,0,0,1-1.7-4.2,28.74,28.74,0,0,1-.6-5.4c-.1-2-.1-4.2-.1-6.7s0-4.7.1-6.7a40.44,40.44,0,0,1,.6-5.4,13.22,13.22,0,0,1,1.7-4.2,8.18,8.18,0,0,1,3.2-2.9,20.49,20.49,0,0,1,5.3-1.8,44.24,44.24,0,0,1,8-.6h12.1a46.08,46.08,0,0,1,6.8.4,26.84,26.84,0,0,1,5,1.1,11.7,11.7,0,0,1,3.5,1.9,8.19,8.19,0,0,1,2.2,2.7,10.24,10.24,0,0,1,1.1,3.5,28.07,28.07,0,0,1,.3,4.3l-5.4-.1Z"/><path class="cls-1" d="M463.6,46.9a45.8,45.8,0,0,1,8,.6,16.42,16.42,0,0,1,5.3,1.8,9.08,9.08,0,0,1,3.2,2.9,11.15,11.15,0,0,1,1.6,4.2,22.31,22.31,0,0,1,.6,5.4c.1,2,.1,4.2.1,6.7s0,4.7-.1,6.7a40.44,40.44,0,0,1-.6,5.4,16,16,0,0,1-1.6,4.2,8.18,8.18,0,0,1-3.2,2.9,17.32,17.32,0,0,1-5.3,1.8,44.24,44.24,0,0,1-8,.6H448.1a45,45,0,0,1-8-.6,16.42,16.42,0,0,1-5.3-1.8,9.08,9.08,0,0,1-3.2-2.9,13.22,13.22,0,0,1-1.7-4.2,28.74,28.74,0,0,1-.6-5.4c-.1-2-.1-4.2-.1-6.7s0-4.7.1-6.7a40.44,40.44,0,0,1,.6-5.4,11.26,11.26,0,0,1,1.7-4.2,8.18,8.18,0,0,1,3.2-2.9,20.49,20.49,0,0,1,5.3-1.8,44.24,44.24,0,0,1,8-.6Zm0,38.7c2.3,0,4.2-.1,5.8-.2a12.7,12.7,0,0,0,3.9-.8,5.46,5.46,0,0,0,2.4-1.8,6.72,6.72,0,0,0,1.2-3.1,29.44,29.44,0,0,0,.4-4.7c0-1.9.1-4.1.1-6.7s0-4.8-.1-6.7a30.55,30.55,0,0,0-.4-4.7,6.72,6.72,0,0,0-1.2-3.1,5,5,0,0,0-2.4-1.8,13.38,13.38,0,0,0-3.9-.8c-1.6-.1-3.5-.2-5.8-.2H448.1c-2.3,0-4.2.1-5.8.2a12.7,12.7,0,0,0-3.9.8,5.46,5.46,0,0,0-2.4,1.8,6.72,6.72,0,0,0-1.2,3.1,29.44,29.44,0,0,0-.4,4.7v6.7c0,2.6,0,4.8.1,6.7a30.55,30.55,0,0,0,.4,4.7,6.72,6.72,0,0,0,1.2,3.1,4.52,4.52,0,0,0,2.4,1.8,12.7,12.7,0,0,0,3.9.8c1.6.1,3.5.2,5.8.2Z"/><path class="cls-1" d="M496.3,51.2V89.1h-5.2V47.8h8.3l24.1,36.1,24.1-36.1h8.5V89.1h-5.2V51.8L526.4,89.1h-5.2Z"/><path class="cls-1" d="M566.4,47.8h31a59.18,59.18,0,0,1,6.5.3,20.59,20.59,0,0,1,4.4,1,7.83,7.83,0,0,1,2.7,1.7,6.78,6.78,0,0,1,1.4,2.3,9.43,9.43,0,0,1,.5,3c0,1.1.1,2.3.1,3.7s0,2.7-.1,3.9a14,14,0,0,1-.6,3.2,5.89,5.89,0,0,1-1.7,2.5,9.61,9.61,0,0,1-3.2,1.8,28.72,28.72,0,0,1-5.3,1.1,59.77,59.77,0,0,1-8,.4H571.8V89h-5.2l-.2-41.2Zm5.2,20.6h22.3c2.3,0,4.2,0,5.8-.1a31.51,31.51,0,0,0,3.9-.4A6.69,6.69,0,0,0,606,67a2.76,2.76,0,0,0,1.2-1.6,7.79,7.79,0,0,0,.5-2.3c0-.9.1-2,.1-3.2a26.28,26.28,0,0,0-.1-3,4.65,4.65,0,0,0-.5-2.1,4.07,4.07,0,0,0-1.2-1.4,8.34,8.34,0,0,0-2.4-.8,31.51,31.51,0,0,0-3.9-.4c-1.6-.1-3.5-.1-5.8-.1H571.6Z"/><path class="cls-1" d="M654.5,79.6H622.2l-5.4,9.5h-6l23.6-41.3h7.4l23.5,41.3h-5.4ZM652,75.3,638.3,51.2,624.6,75.3Z"/><path class="cls-1" d="M673.5,89.1h-5.2V47.8h9.1l37.9,36.1V47.8h5.2V89.1h-6.9l-40-37v37Z"/><path class="cls-1" d="M724.6,47.8h6.9l19,20.2,18.9-20.2h6.9L753,71.9V89.1h-5.2V71.9Z"/></g></svg>